<svg xmlns="http://www.w3.org/2000/svg" width="380" height="780" viewBox="0 0 380 780" font-family="Segoe UI, Tahoma, sans-serif" direction="rtl">
<defs><clipPath id="r"><rect x="0" y="0" width="380" height="780" rx="28"/></clipPath></defs>
<g clip-path="url(#r)">
<rect x="0" y="0" width="380" height="780" fill="#11151C"/>
<!-- status bar -->
<rect x="0" y="0" width="380" height="34" fill="#11151C"/>
<text x="24" y="22" fill="#E8EAF0" font-size="13" text-anchor="start">100%</text>
<text x="356" y="22" fill="#E8EAF0" font-size="13" text-anchor="end">9:41</text>
<rect x="0" y="34" width="380" height="52" fill="#1A1F28"/><text x="328" y="66" fill="#E8EAF0" font-size="19" font-weight="bold" text-anchor="end">لوحة التحكم</text><text x="358" y="66" fill="#E8EAF0" font-size="20" text-anchor="end">→</text>
<text x="358" y="82" fill="#8A94A6" font-size="12" font-weight="normal" text-anchor="end">admin</text>
<rect x="200" y="100" width="150" height="96" rx="16" fill="#1A1F28" stroke="none"/><circle cx="326" cy="126" r="16" fill="#1565C033"/><text x="326" y="131" font-size="15" text-anchor="middle">▦</text><text x="334" y="166" fill="#E8EAF0" font-size="24" font-weight="bold" text-anchor="end">24</text><text x="334" y="186" fill="#8A94A6" font-size="12" font-weight="normal" text-anchor="end">إجمالي المنتجات</text>
<rect x="30" y="100" width="150" height="96" rx="16" fill="#1A1F28" stroke="none"/><circle cx="156" cy="126" r="16" fill="#2E7D3233"/><text x="156" y="131" font-size="15" text-anchor="middle">#</text><text x="164" y="166" fill="#E8EAF0" font-size="24" font-weight="bold" text-anchor="end">318</text><text x="164" y="186" fill="#8A94A6" font-size="12" font-weight="normal" text-anchor="end">إجمالي الكمية</text>
<rect x="200" y="206" width="150" height="96" rx="16" fill="#1A1F28" stroke="none"/><circle cx="326" cy="232" r="16" fill="#C6282833"/><text x="326" y="237" font-size="15" text-anchor="middle">⚠</text><text x="334" y="272" fill="#E8EAF0" font-size="24" font-weight="bold" text-anchor="end">5</text><text x="334" y="292" fill="#8A94A6" font-size="12" font-weight="normal" text-anchor="end">مخزون منخفض</text>
<rect x="30" y="206" width="150" height="96" rx="16" fill="#1A1F28" stroke="none"/><circle cx="156" cy="232" r="16" fill="#B26A0033"/><text x="156" y="237" font-size="15" text-anchor="middle">◔</text><text x="164" y="272" fill="#E8EAF0" font-size="24" font-weight="bold" text-anchor="end">7</text><text x="164" y="292" fill="#8A94A6" font-size="12" font-weight="normal" text-anchor="end">صرف اليوم</text>
<rect x="200" y="330" width="150" height="104" rx="18" fill="#25406B" stroke="none"/><text x="326" y="372" font-size="26" text-anchor="middle">▦</text><text x="334" y="414" fill="#BBD0FF" font-size="15" font-weight="bold" text-anchor="end">المنتجات</text>
<rect x="30" y="330" width="150" height="104" rx="18" fill="#25406B" stroke="none"/><text x="156" y="372" font-size="26" text-anchor="middle">▤</text><text x="164" y="414" fill="#BBD0FF" font-size="15" font-weight="bold" text-anchor="end">الجرد</text>
<rect x="200" y="444" width="150" height="104" rx="18" fill="#25406B" stroke="none"/><text x="326" y="486" font-size="26" text-anchor="middle">🛒</text><text x="334" y="528" fill="#BBD0FF" font-size="15" font-weight="bold" text-anchor="end">صرف مخزون</text>
<rect x="30" y="444" width="150" height="104" rx="18" fill="#25406B" stroke="none"/><text x="156" y="486" font-size="26" text-anchor="middle">🏷</text><text x="164" y="528" fill="#BBD0FF" font-size="15" font-weight="bold" text-anchor="end">الفئات</text>

</g>
<rect x="0.5" y="0.5" width="379" height="779" rx="28" fill="none" stroke="#00000022"/>
</svg>